# xmcd
# 
# Track frame offsets:
#     150
#     14547
#     30525
#     52015
#     65870
#     87317
#     104687
#     124555
#     141567
#     158165
#     173747
#     193220
#     208182
#     226540
#     251632
# 
# Disc length: 3443
# 
# Revision: 13
# Processed by: cddbd v1.5.2PL0 Copyright (c) Steve Scherf et al.
# Submitted via: fre:ac v1.0.17
# 
DISCID=db0d710f
DTITLE=Fun Lovin' Criminals - Come Find Yourself
DYEAR=1996
DGENRE=Rock
TTITLE0=The Fun Lovin' Criminal
TTITLE1=Passive/Aggressive
TTITLE2=The Grave and the Constant
TTITLE3=Scooby Snacks
TTITLE4=Smoke 'Em
TTITLE5=Bombin' the L
TTITLE6=I Can't Get with That
TTITLE7=King of New York
TTITLE8=We Have All the Time in the World
TTITLE9=Bear Hug
TTITLE10=Come Find Yourself
TTITLE11=Crime and Punishment
TTITLE12=Methadonia
TTITLE13=I Can't Get with That (Schmoove Version)
TTITLE14=Coney Island Girl
EXTD=
EXTT0=
EXTT1=
EXTT2=
EXTT3=
EXTT4=
EXTT5=
EXTT6=
EXTT7=
EXTT8=
EXTT9=
EXTT10=
EXTT11=
EXTT12=
EXTT13=
EXTT14=
PLAYORDER=
